<mxfile host="Electron" agent="Mozilla/5.0 (Windows NT 10.0; Win64; x64) AppleWebKit/537.36 (KHTML, like Gecko) draw.io/28.0.6 Chrome/138.0.7204.100 Electron/37.2.3 Safari/537.36" version="28.0.6">
  <diagram name="Página-1" id="jgDgq8h9rCFxsjfZNpLq">
    <mxGraphModel dx="1678" dy="989" grid="0" gridSize="10" guides="1" tooltips="1" connect="1" arrows="1" fold="1" page="1" pageScale="1" pageWidth="827" pageHeight="1169" math="0" shadow="0">
      <root>
        <mxCell id="0" />
        <mxCell id="1" parent="0" />
        <mxCell id="9RGipVJLuF_nT8034py3-1" value="Elaboración de memoria de labores de la Dirección" style="shape=table;startSize=28;container=1;collapsible=0;childLayout=tableLayout;fixedRows=1;rowLines=0;fontStyle=0;strokeColor=default;fontSize=14;fontFamily=Times New Roman;" vertex="1" parent="1">
          <mxGeometry x="30" y="37" width="302.40640394088666" height="95.17586206896556" as="geometry" />
        </mxCell>
        <mxCell id="9RGipVJLuF_nT8034py3-2" value="" style="shape=tableRow;horizontal=0;startSize=0;swimlaneHead=0;swimlaneBody=0;top=0;left=0;bottom=0;right=0;collapsible=0;dropTarget=0;fillColor=none;points=[[0,0.5],[1,0.5]];portConstraint=eastwest;strokeColor=inherit;fontSize=14;fontFamily=Times New Roman;" vertex="1" parent="9RGipVJLuF_nT8034py3-1">
          <mxGeometry y="28" width="302.40640394088666" height="20" as="geometry" />
        </mxCell>
        <mxCell id="9RGipVJLuF_nT8034py3-3" value="&lt;font&gt;Detalle&lt;/font&gt;&lt;div&gt;&lt;br&gt;&lt;/div&gt;" style="shape=partialRectangle;html=1;whiteSpace=wrap;connectable=0;fillColor=none;top=0;left=0;bottom=0;right=0;overflow=hidden;pointerEvents=1;strokeColor=inherit;fontSize=14;fontFamily=Times New Roman;" vertex="1" parent="9RGipVJLuF_nT8034py3-2">
          <mxGeometry width="76" height="20" as="geometry">
            <mxRectangle width="76" height="20" as="alternateBounds" />
          </mxGeometry>
        </mxCell>
        <mxCell id="9RGipVJLuF_nT8034py3-4" value="&lt;font&gt;Ciclo 01-2025&lt;/font&gt;" style="shape=partialRectangle;html=1;whiteSpace=wrap;connectable=0;fillColor=none;top=0;left=0;bottom=0;right=0;align=left;spacingLeft=6;overflow=hidden;strokeColor=inherit;fontSize=14;fontFamily=Times New Roman;" vertex="1" parent="9RGipVJLuF_nT8034py3-2">
          <mxGeometry x="76" width="226" height="20" as="geometry">
            <mxRectangle width="226" height="20" as="alternateBounds" />
          </mxGeometry>
        </mxCell>
        <mxCell id="9RGipVJLuF_nT8034py3-5" value="" style="shape=tableRow;horizontal=0;startSize=0;swimlaneHead=0;swimlaneBody=0;top=0;left=0;bottom=0;right=0;collapsible=0;dropTarget=0;fillColor=none;points=[[0,0.5],[1,0.5]];portConstraint=eastwest;strokeColor=inherit;fontSize=14;fontFamily=Times New Roman;" vertex="1" parent="9RGipVJLuF_nT8034py3-1">
          <mxGeometry y="48" width="302.40640394088666" height="25" as="geometry" />
        </mxCell>
        <mxCell id="9RGipVJLuF_nT8034py3-6" value="&lt;font&gt;Encargado&lt;/font&gt;" style="shape=partialRectangle;html=1;whiteSpace=wrap;connectable=0;fillColor=none;top=0;left=0;bottom=0;right=0;overflow=hidden;strokeColor=inherit;fontSize=14;fontFamily=Times New Roman;" vertex="1" parent="9RGipVJLuF_nT8034py3-5">
          <mxGeometry width="76" height="25" as="geometry">
            <mxRectangle width="76" height="25" as="alternateBounds" />
          </mxGeometry>
        </mxCell>
        <mxCell id="9RGipVJLuF_nT8034py3-7" value="&lt;span&gt;Mesalina Ramirez&lt;/span&gt;" style="shape=partialRectangle;html=1;whiteSpace=wrap;connectable=0;fillColor=none;top=0;left=0;bottom=0;right=0;align=left;spacingLeft=6;overflow=hidden;strokeColor=inherit;fontSize=14;fontFamily=Times New Roman;" vertex="1" parent="9RGipVJLuF_nT8034py3-5">
          <mxGeometry x="76" width="226" height="25" as="geometry">
            <mxRectangle width="226" height="25" as="alternateBounds" />
          </mxGeometry>
        </mxCell>
        <mxCell id="9RGipVJLuF_nT8034py3-8" value="" style="shape=tableRow;horizontal=0;startSize=0;swimlaneHead=0;swimlaneBody=0;top=0;left=0;bottom=0;right=0;collapsible=0;dropTarget=0;fillColor=none;points=[[0,0.5],[1,0.5]];portConstraint=eastwest;strokeColor=inherit;fontSize=14;fontFamily=Times New Roman;" vertex="1" parent="9RGipVJLuF_nT8034py3-1">
          <mxGeometry y="73" width="302.40640394088666" height="20" as="geometry" />
        </mxCell>
        <mxCell id="9RGipVJLuF_nT8034py3-9" value="" style="shape=partialRectangle;html=1;whiteSpace=wrap;connectable=0;fillColor=none;top=0;left=0;bottom=0;right=0;overflow=hidden;strokeColor=inherit;fontSize=14;fontFamily=Times New Roman;" vertex="1" parent="9RGipVJLuF_nT8034py3-8">
          <mxGeometry width="76" height="20" as="geometry">
            <mxRectangle width="76" height="20" as="alternateBounds" />
          </mxGeometry>
        </mxCell>
        <mxCell id="9RGipVJLuF_nT8034py3-10" value="" style="shape=partialRectangle;html=1;whiteSpace=wrap;connectable=0;fillColor=none;top=0;left=0;bottom=0;right=0;align=left;spacingLeft=6;overflow=hidden;strokeColor=inherit;fontSize=14;fontFamily=Times New Roman;" vertex="1" parent="9RGipVJLuF_nT8034py3-8">
          <mxGeometry x="76" width="226" height="20" as="geometry">
            <mxRectangle width="226" height="20" as="alternateBounds" />
          </mxGeometry>
        </mxCell>
        <mxCell id="9RGipVJLuF_nT8034py3-15" value="" style="edgeStyle=orthogonalEdgeStyle;rounded=0;orthogonalLoop=1;jettySize=auto;html=1;fontSize=12;" edge="1" parent="1" source="9RGipVJLuF_nT8034py3-11" target="9RGipVJLuF_nT8034py3-14">
          <mxGeometry relative="1" as="geometry" />
        </mxCell>
        <mxCell id="9RGipVJLuF_nT8034py3-11" value="&lt;font&gt;Elaboración de memoria de labores de la Direccción&lt;/font&gt;" style="rounded=0;whiteSpace=wrap;html=1;fillColor=#dae8fc;strokeColor=#6c8ebf;fontFamily=Times New Roman;" vertex="1" parent="1">
          <mxGeometry x="336" y="161" width="155" height="42" as="geometry" />
        </mxCell>
        <mxCell id="9RGipVJLuF_nT8034py3-17" value="" style="edgeStyle=orthogonalEdgeStyle;rounded=0;orthogonalLoop=1;jettySize=auto;html=1;fontSize=12;" edge="1" parent="1" source="9RGipVJLuF_nT8034py3-14" target="9RGipVJLuF_nT8034py3-16">
          <mxGeometry relative="1" as="geometry" />
        </mxCell>
        <mxCell id="9RGipVJLuF_nT8034py3-14" value="&lt;font&gt;Petición por la VRA&lt;/font&gt;" style="whiteSpace=wrap;html=1;fontFamily=Times New Roman;rounded=0;fontSize=12;" vertex="1" parent="1">
          <mxGeometry x="354.01" y="223" width="120" height="22" as="geometry" />
        </mxCell>
        <mxCell id="9RGipVJLuF_nT8034py3-19" value="" style="edgeStyle=orthogonalEdgeStyle;rounded=0;orthogonalLoop=1;jettySize=auto;html=1;fontSize=12;" edge="1" parent="1" source="9RGipVJLuF_nT8034py3-16" target="9RGipVJLuF_nT8034py3-18">
          <mxGeometry relative="1" as="geometry" />
        </mxCell>
        <mxCell id="9RGipVJLuF_nT8034py3-16" value="&lt;font&gt;Elaboración de documento denominado &quot;Memoria de labores Dirección de Educación Virtual&quot;&lt;/font&gt;" style="whiteSpace=wrap;html=1;fontFamily=Times New Roman;rounded=0;fontSize=12;" vertex="1" parent="1">
          <mxGeometry x="339.38" y="272" width="149.25" height="56" as="geometry" />
        </mxCell>
        <mxCell id="9RGipVJLuF_nT8034py3-21" value="" style="edgeStyle=orthogonalEdgeStyle;rounded=0;orthogonalLoop=1;jettySize=auto;html=1;fontSize=12;" edge="1" parent="1" source="9RGipVJLuF_nT8034py3-18" target="9RGipVJLuF_nT8034py3-20">
          <mxGeometry relative="1" as="geometry" />
        </mxCell>
        <mxCell id="9RGipVJLuF_nT8034py3-18" value="&lt;font&gt;Registro de datos de número de alumnos virtuales Pregrado y Maestría&lt;/font&gt;" style="whiteSpace=wrap;html=1;fontFamily=Times New Roman;rounded=0;fontSize=12;" vertex="1" parent="1">
          <mxGeometry x="340.59999999999997" y="356" width="146.82" height="48" as="geometry" />
        </mxCell>
        <mxCell id="9RGipVJLuF_nT8034py3-23" value="" style="edgeStyle=orthogonalEdgeStyle;rounded=0;orthogonalLoop=1;jettySize=auto;html=1;" edge="1" parent="1" source="9RGipVJLuF_nT8034py3-20" target="9RGipVJLuF_nT8034py3-22">
          <mxGeometry relative="1" as="geometry" />
        </mxCell>
        <mxCell id="9RGipVJLuF_nT8034py3-20" value="Presentación de estadístico de uso de las salas de grabación por año de la memoria" style="whiteSpace=wrap;html=1;fontFamily=Times New Roman;rounded=0;fontSize=12;" vertex="1" parent="1">
          <mxGeometry x="347.51" y="427" width="133" height="60" as="geometry" />
        </mxCell>
        <mxCell id="9RGipVJLuF_nT8034py3-25" value="" style="edgeStyle=orthogonalEdgeStyle;rounded=0;orthogonalLoop=1;jettySize=auto;html=1;" edge="1" parent="1" source="9RGipVJLuF_nT8034py3-22" target="9RGipVJLuF_nT8034py3-24">
          <mxGeometry relative="1" as="geometry" />
        </mxCell>
        <mxCell id="9RGipVJLuF_nT8034py3-22" value="Presentación de resultados o datos importantes, se incorporan capacitaciones a docentes" style="whiteSpace=wrap;html=1;fontFamily=Times New Roman;rounded=0;" vertex="1" parent="1">
          <mxGeometry x="337.01" y="510" width="154" height="57" as="geometry" />
        </mxCell>
        <mxCell id="9RGipVJLuF_nT8034py3-27" value="" style="edgeStyle=orthogonalEdgeStyle;rounded=0;orthogonalLoop=1;jettySize=auto;html=1;" edge="1" parent="1" source="9RGipVJLuF_nT8034py3-24" target="9RGipVJLuF_nT8034py3-26">
          <mxGeometry relative="1" as="geometry" />
        </mxCell>
        <mxCell id="9RGipVJLuF_nT8034py3-24" value="Se revisa documento con los datos anteriores" style="whiteSpace=wrap;html=1;fontFamily=Times New Roman;rounded=0;" vertex="1" parent="1">
          <mxGeometry x="354" y="591" width="120" height="37" as="geometry" />
        </mxCell>
        <mxCell id="9RGipVJLuF_nT8034py3-29" value="" style="edgeStyle=orthogonalEdgeStyle;rounded=0;orthogonalLoop=1;jettySize=auto;html=1;" edge="1" parent="1" source="9RGipVJLuF_nT8034py3-26" target="9RGipVJLuF_nT8034py3-28">
          <mxGeometry relative="1" as="geometry" />
        </mxCell>
        <mxCell id="9RGipVJLuF_nT8034py3-26" value="Se remite vía e-mail a la VRA con copia al asistente o secretaria" style="whiteSpace=wrap;html=1;fontFamily=Times New Roman;rounded=0;" vertex="1" parent="1">
          <mxGeometry x="354" y="652" width="120" height="49" as="geometry" />
        </mxCell>
        <mxCell id="9RGipVJLuF_nT8034py3-31" value="" style="edgeStyle=orthogonalEdgeStyle;rounded=0;orthogonalLoop=1;jettySize=auto;html=1;" edge="1" parent="1" source="9RGipVJLuF_nT8034py3-28" target="9RGipVJLuF_nT8034py3-30">
          <mxGeometry relative="1" as="geometry" />
        </mxCell>
        <mxCell id="9RGipVJLuF_nT8034py3-28" value="Se espera el envío de recepción con visto bueno de la información" style="whiteSpace=wrap;html=1;fontFamily=Times New Roman;rounded=0;" vertex="1" parent="1">
          <mxGeometry x="354.01" y="726" width="120" height="48" as="geometry" />
        </mxCell>
        <mxCell id="9RGipVJLuF_nT8034py3-33" value="" style="edgeStyle=orthogonalEdgeStyle;rounded=0;orthogonalLoop=1;jettySize=auto;html=1;" edge="1" parent="1" source="9RGipVJLuF_nT8034py3-30" target="9RGipVJLuF_nT8034py3-32">
          <mxGeometry relative="1" as="geometry" />
        </mxCell>
        <mxCell id="9RGipVJLuF_nT8034py3-36" style="edgeStyle=orthogonalEdgeStyle;rounded=0;orthogonalLoop=1;jettySize=auto;html=1;exitX=0;exitY=0.5;exitDx=0;exitDy=0;entryX=0;entryY=0.5;entryDx=0;entryDy=0;" edge="1" parent="1" source="9RGipVJLuF_nT8034py3-30" target="9RGipVJLuF_nT8034py3-24">
          <mxGeometry relative="1" as="geometry" />
        </mxCell>
        <mxCell id="9RGipVJLuF_nT8034py3-30" value="¿Visto bueno?" style="rhombus;whiteSpace=wrap;html=1;fontFamily=Times New Roman;rounded=0;" vertex="1" parent="1">
          <mxGeometry x="368.51" y="799" width="91" height="69" as="geometry" />
        </mxCell>
        <mxCell id="9RGipVJLuF_nT8034py3-32" value="Se archiva en documentos de MEMORIA en dispositivo de la Dirección de Educación Virtual" style="whiteSpace=wrap;html=1;fontFamily=Times New Roman;rounded=0;" vertex="1" parent="1">
          <mxGeometry x="517" y="875" width="165" height="48" as="geometry" />
        </mxCell>
        <mxCell id="9RGipVJLuF_nT8034py3-34" value="SI" style="text;html=1;align=center;verticalAlign=middle;resizable=0;points=[];autosize=1;strokeColor=none;fillColor=none;fontFamily=Times New Roman;" vertex="1" parent="1">
          <mxGeometry x="447" y="831" width="29" height="26" as="geometry" />
        </mxCell>
        <mxCell id="9RGipVJLuF_nT8034py3-35" value="&lt;font face=&quot;Times New Roman&quot;&gt;NO&lt;/font&gt;" style="text;html=1;align=center;verticalAlign=middle;resizable=0;points=[];autosize=1;strokeColor=none;fillColor=none;" vertex="1" parent="1">
          <mxGeometry x="347.51" y="831" width="35" height="26" as="geometry" />
        </mxCell>
      </root>
    </mxGraphModel>
  </diagram>
</mxfile>
